<?xml version="1.0" encoding="UTF-8"?>
<svg id="Layer_2" data-name="Layer 2" xmlns="http://www.w3.org/2000/svg" viewBox="0 0 43.26 49.44">
  <defs>
    <style>
      .cls-1 {
        fill: #e00700;
        stroke-width: 0px;
      }
    </style>
  </defs>
  <g id="Layer_1-2" data-name="Layer 1">
    <path class="cls-1" d="M33.99,49.44H9.27c-5.12,0-9.27-4.15-9.27-9.27v-6.95c0-1.28,1.04-2.32,2.32-2.32s2.32,1.04,2.32,2.32v6.95c0,2.55,2.09,4.63,4.63,4.63h24.72c2.55,0,4.63-2.09,4.63-4.63v-6.95c0-1.28,1.04-2.32,2.32-2.32s2.32,1.04,2.32,2.32v6.95c0,5.12-4.15,9.27-9.27,9.27ZM23.21,33.36l13.13-12.36c.94-.88.98-2.34.1-3.27-.88-.93-2.34-.98-3.27-.1l-9.22,8.67V2.32c0-1.28-1.03-2.32-2.32-2.32s-2.32,1.04-2.32,2.32v23.98l-9.23-8.68c-.93-.88-2.4-.83-3.27.11-.42.44-.63,1.01-.63,1.58,0,.62.24,1.23.73,1.69l13.13,12.36c.89.84,2.28.84,3.17,0Z"/>
  </g>
</svg>